<svg width="29" height="28" viewBox="0 0 29 28" fill="none" xmlns="http://www.w3.org/2000/svg">
<path d="M9.17078 0C4.58457 0 0.855469 3.71 0.855469 8.27273V19.7273C0.855469 24.29 4.58457 28 9.17078 28H20.6843C25.2705 28 28.9996 24.29 28.9996 19.7273V8.27273C28.9996 3.71 25.2705 0 20.6843 0H9.17078ZM22.6032 5.09091C23.3068 5.09091 23.8825 5.66364 23.8825 6.36364C23.8825 7.06364 23.3068 7.63636 22.6032 7.63636C21.8996 7.63636 21.3239 7.06364 21.3239 6.36364C21.3239 5.66364 21.8996 5.09091 22.6032 5.09091ZM14.9275 7C18.8102 7 21.9636 10.1373 21.9636 14C21.9636 17.8627 18.8102 21 14.9275 21C11.0449 21 7.89151 17.8627 7.89151 14C7.89151 10.1373 11.0449 7 14.9275 7ZM14.9275 8.27273C11.7549 8.27273 9.17078 10.8436 9.17078 14C9.17078 17.1564 11.7549 19.7273 14.9275 19.7273C18.1002 19.7273 20.6843 17.1564 20.6843 14C20.6843 10.8436 18.1002 8.27273 14.9275 8.27273Z" fill="#D1B05E"/>
</svg>
