<svg width="29" height="241" viewBox="0 0 29 241" fill="none" xmlns="http://www.w3.org/2000/svg">
<line x1="18.5" y1="31" x2="18.5" y2="216" stroke="#929292"/>
<path d="M22.312 16.24C22.312 17.184 22.096 18.032 21.664 18.784C21.232 19.52 20.64 20.104 19.888 20.536C19.12 20.952 18.256 21.16 17.296 21.16C16.352 21.16 15.512 20.952 14.776 20.536C14.04 20.104 13.464 19.512 13.048 18.76C12.632 18.008 12.424 17.16 12.424 16.216C12.424 15.288 12.64 14.456 13.072 13.72C13.488 12.984 14.072 12.416 14.824 12.016C15.576 11.6 16.424 11.392 17.368 11.392C18.312 11.392 19.16 11.6 19.912 12.016C20.664 12.432 21.256 13.008 21.688 13.744C22.104 14.48 22.312 15.312 22.312 16.24ZM21.976 15.976C21.976 15.016 21.592 14.296 20.824 13.816C20.04 13.32 18.984 13.072 17.656 13.072C16.056 13.072 14.84 13.4 14.008 14.056C13.176 14.696 12.76 15.504 12.76 16.48C12.76 17.424 13.16 18.168 13.96 18.712C14.76 19.24 15.808 19.504 17.104 19.504C18.528 19.504 19.696 19.184 20.608 18.544C21.52 17.904 21.976 17.048 21.976 15.976ZM21.64 9.6745C20.488 8.2665 19.552 7.1785 18.832 6.4105C18.096 5.6425 17.44 5.0905 16.864 4.7545C16.288 4.4185 15.712 4.2505 15.136 4.2505C14.496 4.2505 13.976 4.4505 13.576 4.8505C13.16 5.2345 12.952 5.7385 12.952 6.3625C12.952 7.6265 13.944 8.5385 15.928 9.0985C15.944 9.0985 15.952 9.1305 15.952 9.1945C15.952 9.3385 15.92 9.4025 15.856 9.3865L12.208 8.4505C12.176 8.4505 12.16 8.4185 12.16 8.3545C12.16 8.3065 12.176 8.2665 12.208 8.2345C12.224 8.1865 12.24 8.1705 12.256 8.1865C12.32 8.2025 12.408 8.2105 12.52 8.2105C12.776 8.2105 12.904 8.0905 12.904 7.8505C12.904 7.7065 12.848 7.4665 12.736 7.1305C12.528 6.4745 12.424 5.8905 12.424 5.3785C12.424 4.5625 12.648 3.9225 13.096 3.4585C13.528 2.9785 14.096 2.7385 14.8 2.7385C15.36 2.7385 15.92 2.9225 16.48 3.2905C17.04 3.6425 17.64 4.1705 18.28 4.8745C18.904 5.5625 19.696 6.5305 20.656 7.7785C20.704 7.8425 20.744 7.8665 20.776 7.8505C20.808 7.8185 20.824 7.7625 20.824 7.6825C20.824 5.9225 20.8 4.6985 20.752 4.0105C20.704 3.3225 20.576 2.8265 20.368 2.5225C20.16 2.2185 19.792 2.0105 19.264 1.8985C19.232 1.8825 19.224 1.8345 19.24 1.7545C19.24 1.6585 19.256 1.6105 19.288 1.6105L21.736 1.9705C21.8 1.9705 21.864 1.9945 21.928 2.0425C21.976 2.0745 22 2.1225 22 2.1865V9.5065C22 9.5865 21.96 9.6505 21.88 9.6985C21.784 9.7465 21.704 9.7385 21.64 9.6745Z" fill="#F5F5F5"/>
<path d="M22 239.68C22 239.728 21.952 239.752 21.856 239.752C21.76 239.752 21.712 239.728 21.712 239.68C21.712 238.992 21.672 238.488 21.592 238.168C21.512 237.848 21.36 237.632 21.136 237.52C20.896 237.392 20.536 237.328 20.056 237.328H15.592C14.984 237.328 14.56 237.368 14.32 237.448C14.064 237.528 13.936 237.696 13.936 237.952C13.936 238.24 14.136 238.824 14.536 239.704V239.728C14.536 239.792 14.496 239.84 14.416 239.872C14.336 239.904 14.288 239.888 14.272 239.824L12.52 236.2C12.504 236.184 12.496 236.16 12.496 236.128C12.496 236.08 12.52 236.04 12.568 236.008C12.6 235.976 12.64 235.96 12.688 235.96H20.056C20.552 235.96 20.912 235.912 21.136 235.816C21.36 235.704 21.512 235.488 21.592 235.168C21.672 234.848 21.712 234.336 21.712 233.632C21.712 233.584 21.76 233.56 21.856 233.56C21.952 233.56 22 233.584 22 233.632C22 234.16 21.992 234.576 21.976 234.88L21.952 236.656L21.976 238.408C21.992 238.712 22 239.136 22 239.68ZM22 231.711C22 231.759 21.952 231.783 21.856 231.783C21.76 231.783 21.712 231.759 21.712 231.711C21.712 231.023 21.672 230.519 21.592 230.199C21.512 229.879 21.36 229.663 21.136 229.551C20.896 229.423 20.536 229.359 20.056 229.359H15.592C14.984 229.359 14.56 229.399 14.32 229.479C14.064 229.559 13.936 229.727 13.936 229.983C13.936 230.271 14.136 230.855 14.536 231.735V231.759C14.536 231.823 14.496 231.871 14.416 231.903C14.336 231.935 14.288 231.919 14.272 231.855L12.52 228.231C12.504 228.215 12.496 228.191 12.496 228.159C12.496 228.111 12.52 228.071 12.568 228.039C12.6 228.007 12.64 227.991 12.688 227.991H20.056C20.552 227.991 20.912 227.943 21.136 227.847C21.36 227.735 21.512 227.519 21.592 227.199C21.672 226.879 21.712 226.367 21.712 225.663C21.712 225.615 21.76 225.591 21.856 225.591C21.952 225.591 22 225.615 22 225.663C22 226.191 21.992 226.607 21.976 226.911L21.952 228.687L21.976 230.439C21.992 230.743 22 231.167 22 231.711Z" fill="#F5F5F5"/>
<rect x="17" y="31" width="2" height="34" rx="1" fill="white"/>
</svg>
