<svg width="29" height="239" viewBox="0 0 29 239" fill="none" xmlns="http://www.w3.org/2000/svg">
<line x1="18.5" y1="29" x2="18.5" y2="214" stroke="#929292"/>
<path d="M22 18.68C22 18.728 21.952 18.752 21.856 18.752C21.76 18.752 21.712 18.728 21.712 18.68C21.712 17.992 21.672 17.488 21.592 17.168C21.512 16.848 21.36 16.632 21.136 16.52C20.896 16.392 20.536 16.328 20.056 16.328H15.592C14.984 16.328 14.56 16.368 14.32 16.448C14.064 16.528 13.936 16.696 13.936 16.952C13.936 17.24 14.136 17.824 14.536 18.704V18.728C14.536 18.792 14.496 18.84 14.416 18.872C14.336 18.904 14.288 18.888 14.272 18.824L12.52 15.2C12.504 15.184 12.496 15.16 12.496 15.128C12.496 15.08 12.52 15.04 12.568 15.008C12.6 14.976 12.64 14.96 12.688 14.96H20.056C20.552 14.96 20.912 14.912 21.136 14.816C21.36 14.704 21.512 14.488 21.592 14.168C21.672 13.848 21.712 13.336 21.712 12.632C21.712 12.584 21.76 12.56 21.856 12.56C21.952 12.56 22 12.584 22 12.632C22 13.16 21.992 13.576 21.976 13.88L21.952 15.656L21.976 17.408C21.992 17.712 22 18.136 22 18.68ZM22.312 6.27125C22.312 7.21525 22.096 8.06325 21.664 8.81525C21.232 9.55125 20.64 10.1352 19.888 10.5672C19.12 10.9832 18.256 11.1912 17.296 11.1912C16.352 11.1912 15.512 10.9832 14.776 10.5672C14.04 10.1352 13.464 9.54325 13.048 8.79125C12.632 8.03925 12.424 7.19125 12.424 6.24725C12.424 5.31925 12.64 4.48725 13.072 3.75125C13.488 3.01525 14.072 2.44725 14.824 2.04725C15.576 1.63125 16.424 1.42325 17.368 1.42325C18.312 1.42325 19.16 1.63125 19.912 2.04725C20.664 2.46325 21.256 3.03925 21.688 3.77525C22.104 4.51125 22.312 5.34325 22.312 6.27125ZM21.976 6.00725C21.976 5.04725 21.592 4.32725 20.824 3.84725C20.04 3.35125 18.984 3.10325 17.656 3.10325C16.056 3.10325 14.84 3.43125 14.008 4.08725C13.176 4.72725 12.76 5.53525 12.76 6.51125C12.76 7.45525 13.16 8.19925 13.96 8.74325C14.76 9.27125 15.808 9.53525 17.104 9.53525C18.528 9.53525 19.696 9.21525 20.608 8.57525C21.52 7.93525 21.976 7.07925 21.976 6.00725Z" fill="#F5F5F5"/>
<path d="M22 237.68C22 237.728 21.952 237.752 21.856 237.752C21.76 237.752 21.712 237.728 21.712 237.68C21.712 236.992 21.672 236.488 21.592 236.168C21.512 235.848 21.36 235.632 21.136 235.52C20.896 235.392 20.536 235.328 20.056 235.328H15.592C14.984 235.328 14.56 235.368 14.32 235.448C14.064 235.528 13.936 235.696 13.936 235.952C13.936 236.24 14.136 236.824 14.536 237.704V237.728C14.536 237.792 14.496 237.84 14.416 237.872C14.336 237.904 14.288 237.888 14.272 237.824L12.52 234.2C12.504 234.184 12.496 234.16 12.496 234.128C12.496 234.08 12.52 234.04 12.568 234.008C12.6 233.976 12.64 233.96 12.688 233.96H20.056C20.552 233.96 20.912 233.912 21.136 233.816C21.36 233.704 21.512 233.488 21.592 233.168C21.672 232.848 21.712 232.336 21.712 231.632C21.712 231.584 21.76 231.56 21.856 231.56C21.952 231.56 22 231.584 22 231.632C22 232.16 21.992 232.576 21.976 232.88L21.952 234.656L21.976 236.408C21.992 236.712 22 237.136 22 237.68ZM22 229.711C22 229.759 21.952 229.783 21.856 229.783C21.76 229.783 21.712 229.759 21.712 229.711C21.712 229.023 21.672 228.519 21.592 228.199C21.512 227.879 21.36 227.663 21.136 227.551C20.896 227.423 20.536 227.359 20.056 227.359H15.592C14.984 227.359 14.56 227.399 14.32 227.479C14.064 227.559 13.936 227.727 13.936 227.983C13.936 228.271 14.136 228.855 14.536 229.735V229.759C14.536 229.823 14.496 229.871 14.416 229.903C14.336 229.935 14.288 229.919 14.272 229.855L12.52 226.231C12.504 226.215 12.496 226.191 12.496 226.159C12.496 226.111 12.52 226.071 12.568 226.039C12.6 226.007 12.64 225.991 12.688 225.991H20.056C20.552 225.991 20.912 225.943 21.136 225.847C21.36 225.735 21.512 225.519 21.592 225.199C21.672 224.879 21.712 224.367 21.712 223.663C21.712 223.615 21.76 223.591 21.856 223.591C21.952 223.591 22 223.615 22 223.663C22 224.191 21.992 224.607 21.976 224.911L21.952 226.687L21.976 228.439C21.992 228.743 22 229.167 22 229.711Z" fill="#F5F5F5"/>
<rect x="17" y="29" width="2" height="170" rx="1" fill="white"/>
</svg>
