<svg width="29" height="241" viewBox="0 0 29 241" fill="none" xmlns="http://www.w3.org/2000/svg">
<line x1="18.5" y1="31" x2="18.5" y2="216" stroke="#929292"/>
<path d="M22.312 16.24C22.312 17.184 22.096 18.032 21.664 18.784C21.232 19.52 20.64 20.104 19.888 20.536C19.12 20.952 18.256 21.16 17.296 21.16C16.352 21.16 15.512 20.952 14.776 20.536C14.04 20.104 13.464 19.512 13.048 18.76C12.632 18.008 12.424 17.16 12.424 16.216C12.424 15.288 12.64 14.456 13.072 13.72C13.488 12.984 14.072 12.416 14.824 12.016C15.576 11.6 16.424 11.392 17.368 11.392C18.312 11.392 19.16 11.6 19.912 12.016C20.664 12.432 21.256 13.008 21.688 13.744C22.104 14.48 22.312 15.312 22.312 16.24ZM21.976 15.976C21.976 15.016 21.592 14.296 20.824 13.816C20.04 13.32 18.984 13.072 17.656 13.072C16.056 13.072 14.84 13.4 14.008 14.056C13.176 14.696 12.76 15.504 12.76 16.48C12.76 17.424 13.16 18.168 13.96 18.712C14.76 19.24 15.808 19.504 17.104 19.504C18.528 19.504 19.696 19.184 20.608 18.544C21.52 17.904 21.976 17.048 21.976 15.976ZM14.2 7.7065C14.2 7.9145 14.312 8.0345 14.536 8.0665L17.296 8.5705C17.312 6.3625 17.72 4.7385 18.52 3.6985C19.304 2.6585 20.392 2.1385 21.784 2.1385C22.696 2.1385 23.52 2.3705 24.256 2.8345C25.008 3.2985 25.728 4.0265 26.416 5.0185C27.12 5.9945 27.848 7.2985 28.6 8.9305V8.9545C28.6 9.0185 28.56 9.0745 28.48 9.1225C28.416 9.1545 28.368 9.1385 28.336 9.0745C27.36 7.1065 26.368 5.7225 25.36 4.9225C24.368 4.1225 23.312 3.7225 22.192 3.7225C20.864 3.7225 19.832 4.1705 19.096 5.0665C18.36 5.9625 17.992 7.2505 17.992 8.9305C17.992 9.0105 17.968 9.0745 17.92 9.1225C17.856 9.1705 17.784 9.1865 17.704 9.1705L13.432 8.4025C13.32 8.3865 13.256 8.3625 13.24 8.3305C13.208 8.2985 13.184 8.2185 13.168 8.0905C12.928 6.0745 12.76 4.7225 12.664 4.0345C12.568 3.3465 12.472 2.9065 12.376 2.7145C12.264 2.5065 12.088 2.3625 11.848 2.2825C11.8 2.2665 11.784 2.2185 11.8 2.1385C11.8 2.0425 11.832 2.0025 11.896 2.0185L13.672 2.4985C13.848 2.5625 13.968 2.6425 14.032 2.7385C14.08 2.8185 14.104 2.9625 14.104 3.1705L14.2 7.7065Z" fill="#4B4B4B"/>
<path d="M22 239.68C22 239.728 21.952 239.752 21.856 239.752C21.76 239.752 21.712 239.728 21.712 239.68C21.712 238.992 21.672 238.488 21.592 238.168C21.512 237.848 21.36 237.632 21.136 237.52C20.896 237.392 20.536 237.328 20.056 237.328H15.592C14.984 237.328 14.56 237.368 14.32 237.448C14.064 237.528 13.936 237.696 13.936 237.952C13.936 238.24 14.136 238.824 14.536 239.704V239.728C14.536 239.792 14.496 239.84 14.416 239.872C14.336 239.904 14.288 239.888 14.272 239.824L12.52 236.2C12.504 236.184 12.496 236.16 12.496 236.128C12.496 236.08 12.52 236.04 12.568 236.008C12.6 235.976 12.64 235.96 12.688 235.96H20.056C20.552 235.96 20.912 235.912 21.136 235.816C21.36 235.704 21.512 235.488 21.592 235.168C21.672 234.848 21.712 234.336 21.712 233.632C21.712 233.584 21.76 233.56 21.856 233.56C21.952 233.56 22 233.584 22 233.632C22 234.16 21.992 234.576 21.976 234.88L21.952 236.656L21.976 238.408C21.992 238.712 22 239.136 22 239.68ZM22 231.711C22 231.759 21.952 231.783 21.856 231.783C21.76 231.783 21.712 231.759 21.712 231.711C21.712 231.023 21.672 230.519 21.592 230.199C21.512 229.879 21.36 229.663 21.136 229.551C20.896 229.423 20.536 229.359 20.056 229.359H15.592C14.984 229.359 14.56 229.399 14.32 229.479C14.064 229.559 13.936 229.727 13.936 229.983C13.936 230.271 14.136 230.855 14.536 231.735V231.759C14.536 231.823 14.496 231.871 14.416 231.903C14.336 231.935 14.288 231.919 14.272 231.855L12.52 228.231C12.504 228.215 12.496 228.191 12.496 228.159C12.496 228.111 12.52 228.071 12.568 228.039C12.6 228.007 12.64 227.991 12.688 227.991H20.056C20.552 227.991 20.912 227.943 21.136 227.847C21.36 227.735 21.512 227.519 21.592 227.199C21.672 226.879 21.712 226.367 21.712 225.663C21.712 225.615 21.76 225.591 21.856 225.591C21.952 225.591 22 225.615 22 225.663C22 226.191 21.992 226.607 21.976 226.911L21.952 228.687L21.976 230.439C21.992 230.743 22 231.167 22 231.711Z" fill="#4B4B4B"/>
<rect x="17" y="31" width="2" height="85" rx="1" fill="#1F1F1F"/>
</svg>
