<svg width="29" height="235" viewBox="0 0 29 235" fill="none" xmlns="http://www.w3.org/2000/svg">
<line x1="18.5" y1="25" x2="18.5" y2="210" stroke="#929292"/>
<path d="M22 14.68C22 14.728 21.952 14.752 21.856 14.752C21.76 14.752 21.712 14.728 21.712 14.68C21.712 13.992 21.672 13.488 21.592 13.168C21.512 12.848 21.36 12.632 21.136 12.52C20.896 12.392 20.536 12.328 20.056 12.328L15.592 12.328C14.984 12.328 14.56 12.368 14.32 12.448C14.064 12.528 13.936 12.696 13.936 12.952C13.936 13.24 14.136 13.824 14.536 14.704V14.728C14.536 14.792 14.496 14.84 14.416 14.872C14.336 14.904 14.288 14.888 14.272 14.824L12.52 11.2C12.504 11.184 12.496 11.16 12.496 11.128C12.496 11.08 12.52 11.04 12.568 11.008C12.6 10.976 12.64 10.96 12.688 10.96H20.056C20.552 10.96 20.912 10.912 21.136 10.816C21.36 10.704 21.512 10.488 21.592 10.168C21.672 9.848 21.712 9.336 21.712 8.632C21.712 8.584 21.76 8.56 21.856 8.56C21.952 8.56 22 8.584 22 8.632C22 9.16 21.992 9.576 21.976 9.88L21.952 11.656L21.976 13.408C21.992 13.712 22 14.136 22 14.68ZM22 6.71125C22 6.75925 21.952 6.78325 21.856 6.78325C21.76 6.78325 21.712 6.75925 21.712 6.71125C21.712 6.02325 21.672 5.51925 21.592 5.19925C21.512 4.87925 21.36 4.66325 21.136 4.55125C20.896 4.42325 20.536 4.35925 20.056 4.35925H15.592C14.984 4.35925 14.56 4.39925 14.32 4.47925C14.064 4.55925 13.936 4.72725 13.936 4.98325C13.936 5.27125 14.136 5.85525 14.536 6.73525V6.75925C14.536 6.82325 14.496 6.87125 14.416 6.90325C14.336 6.93525 14.288 6.91925 14.272 6.85525L12.52 3.23125C12.504 3.21525 12.496 3.19125 12.496 3.15925C12.496 3.11125 12.52 3.07125 12.568 3.03925C12.6 3.00725 12.64 2.99125 12.688 2.99125L20.056 2.99125C20.552 2.99125 20.912 2.94325 21.136 2.84725C21.36 2.73525 21.512 2.51925 21.592 2.19925C21.672 1.87925 21.712 1.36725 21.712 0.66325C21.712 0.61525 21.76 0.59125 21.856 0.59125C21.952 0.59125 22 0.61525 22 0.66325C22 1.19125 21.992 1.60725 21.976 1.91125L21.952 3.68725L21.976 5.43925C21.992 5.74325 22 6.16725 22 6.71125Z" fill="#F5F5F5"/>
<path d="M22 233.68C22 233.728 21.952 233.752 21.856 233.752C21.76 233.752 21.712 233.728 21.712 233.68C21.712 232.992 21.672 232.488 21.592 232.168C21.512 231.848 21.36 231.632 21.136 231.52C20.896 231.392 20.536 231.328 20.056 231.328H15.592C14.984 231.328 14.56 231.368 14.32 231.448C14.064 231.528 13.936 231.696 13.936 231.952C13.936 232.24 14.136 232.824 14.536 233.704V233.728C14.536 233.792 14.496 233.84 14.416 233.872C14.336 233.904 14.288 233.888 14.272 233.824L12.52 230.2C12.504 230.184 12.496 230.16 12.496 230.128C12.496 230.08 12.52 230.04 12.568 230.008C12.6 229.976 12.64 229.96 12.688 229.96H20.056C20.552 229.96 20.912 229.912 21.136 229.816C21.36 229.704 21.512 229.488 21.592 229.168C21.672 228.848 21.712 228.336 21.712 227.632C21.712 227.584 21.76 227.56 21.856 227.56C21.952 227.56 22 227.584 22 227.632C22 228.16 21.992 228.576 21.976 228.88L21.952 230.656L21.976 232.408C21.992 232.712 22 233.136 22 233.68ZM22 225.711C22 225.759 21.952 225.783 21.856 225.783C21.76 225.783 21.712 225.759 21.712 225.711C21.712 225.023 21.672 224.519 21.592 224.199C21.512 223.879 21.36 223.663 21.136 223.551C20.896 223.423 20.536 223.359 20.056 223.359H15.592C14.984 223.359 14.56 223.399 14.32 223.479C14.064 223.559 13.936 223.727 13.936 223.983C13.936 224.271 14.136 224.855 14.536 225.735V225.759C14.536 225.823 14.496 225.871 14.416 225.903C14.336 225.935 14.288 225.919 14.272 225.855L12.52 222.231C12.504 222.215 12.496 222.191 12.496 222.159C12.496 222.111 12.52 222.071 12.568 222.039C12.6 222.007 12.64 221.991 12.688 221.991H20.056C20.552 221.991 20.912 221.943 21.136 221.847C21.36 221.735 21.512 221.519 21.592 221.199C21.672 220.879 21.712 220.367 21.712 219.663C21.712 219.615 21.76 219.591 21.856 219.591C21.952 219.591 22 219.615 22 219.663C22 220.191 21.992 220.607 21.976 220.911L21.952 222.687L21.976 224.439C21.992 224.743 22 225.167 22 225.711Z" fill="#F5F5F5"/>
<rect x="17" y="25" width="2" height="185" rx="1" fill="white"/>
</svg>
