<svg width="29" height="243" viewBox="0 0 29 243" fill="none" xmlns="http://www.w3.org/2000/svg">
<line x1="18.5" y1="33" x2="18.5" y2="218" stroke="#929292"/>
<path d="M22.312 18.24C22.312 19.184 22.096 20.032 21.664 20.784C21.232 21.52 20.64 22.104 19.888 22.536C19.12 22.952 18.256 23.16 17.296 23.16C16.352 23.16 15.512 22.952 14.776 22.536C14.04 22.104 13.464 21.512 13.048 20.76C12.632 20.008 12.424 19.16 12.424 18.216C12.424 17.288 12.64 16.456 13.072 15.72C13.488 14.984 14.072 14.416 14.824 14.016C15.576 13.6 16.424 13.392 17.368 13.392C18.312 13.392 19.16 13.6 19.912 14.016C20.664 14.432 21.256 15.008 21.688 15.744C22.104 16.48 22.312 17.312 22.312 18.24ZM21.976 17.976C21.976 17.016 21.592 16.296 20.824 15.816C20.04 15.32 18.984 15.072 17.656 15.072C16.056 15.072 14.84 15.4 14.008 16.056C13.176 16.696 12.76 17.504 12.76 18.48C12.76 19.424 13.16 20.168 13.96 20.712C14.76 21.24 15.808 21.504 17.104 21.504C18.528 21.504 19.696 21.184 20.608 20.544C21.52 19.904 21.976 19.048 21.976 17.976ZM13.744 5.4105C14.192 4.6105 14.592 3.9625 14.944 3.4665C15.296 2.9705 15.736 2.5545 16.264 2.2185C16.792 1.8665 17.408 1.6905 18.112 1.6905C18.896 1.6905 19.608 1.9225 20.248 2.3865C20.888 2.8345 21.392 3.4505 21.76 4.2345C22.128 5.0025 22.312 5.8425 22.312 6.7545C22.312 7.6825 22.136 8.4985 21.784 9.2025C21.416 9.9065 20.936 10.4585 20.344 10.8585C19.736 11.2425 19.088 11.4345 18.4 11.4345C17.456 11.4345 16.568 11.1225 15.736 10.4985C14.904 9.8585 14.248 9.0745 13.768 8.1465C13.384 8.7705 12.984 9.2505 12.568 9.5865C12.152 9.9225 11.664 10.0905 11.104 10.0905C10.48 10.0905 9.952 9.8985 9.52 9.5145C9.088 9.1305 8.768 8.6505 8.56 8.0745C8.336 7.4985 8.224 6.9225 8.224 6.3465C8.224 5.7065 8.352 5.1465 8.608 4.6665C8.848 4.1705 9.16 3.7945 9.544 3.5385C9.928 3.2665 10.328 3.1305 10.744 3.1305C11.256 3.1305 11.776 3.3305 12.304 3.7305C12.816 4.1145 13.296 4.6745 13.744 5.4105ZM8.608 6.8505C8.608 7.4105 8.768 7.8745 9.088 8.2425C9.408 8.5945 9.84 8.7705 10.384 8.7705C11.056 8.7705 11.624 8.5145 12.088 8.0025C12.536 7.4905 13.04 6.7145 13.6 5.6745C13.2 5.2745 12.808 4.9785 12.424 4.7865C12.024 4.5945 11.592 4.4985 11.128 4.4985C10.376 4.4985 9.768 4.7225 9.304 5.1705C8.84 5.6025 8.608 6.1625 8.608 6.8505ZM21.88 6.0825C21.88 5.2025 21.608 4.4825 21.064 3.9225C20.52 3.3465 19.792 3.0585 18.88 3.0585C18.144 3.0585 17.512 3.2345 16.984 3.5865C16.456 3.9385 16.024 4.3705 15.688 4.8825C15.336 5.3785 14.936 6.0505 14.488 6.8985L13.984 7.8105C14.4 8.4665 14.936 8.9785 15.592 9.3465C16.248 9.6985 16.976 9.8745 17.776 9.8745C18.496 9.8745 19.168 9.7145 19.792 9.3945C20.416 9.0745 20.92 8.6265 21.304 8.0505C21.688 7.4745 21.88 6.8185 21.88 6.0825Z" fill="#414141"/>
<path d="M22 241.68C22 241.728 21.952 241.752 21.856 241.752C21.76 241.752 21.712 241.728 21.712 241.68C21.712 240.992 21.672 240.488 21.592 240.168C21.512 239.848 21.36 239.632 21.136 239.52C20.896 239.392 20.536 239.328 20.056 239.328H15.592C14.984 239.328 14.56 239.368 14.32 239.448C14.064 239.528 13.936 239.696 13.936 239.952C13.936 240.24 14.136 240.824 14.536 241.704V241.728C14.536 241.792 14.496 241.84 14.416 241.872C14.336 241.904 14.288 241.888 14.272 241.824L12.52 238.2C12.504 238.184 12.496 238.16 12.496 238.128C12.496 238.08 12.52 238.04 12.568 238.008C12.6 237.976 12.64 237.96 12.688 237.96H20.056C20.552 237.96 20.912 237.912 21.136 237.816C21.36 237.704 21.512 237.488 21.592 237.168C21.672 236.848 21.712 236.336 21.712 235.632C21.712 235.584 21.76 235.56 21.856 235.56C21.952 235.56 22 235.584 22 235.632C22 236.16 21.992 236.576 21.976 236.88L21.952 238.656L21.976 240.408C21.992 240.712 22 241.136 22 241.68ZM22 233.711C22 233.759 21.952 233.783 21.856 233.783C21.76 233.783 21.712 233.759 21.712 233.711C21.712 233.023 21.672 232.519 21.592 232.199C21.512 231.879 21.36 231.663 21.136 231.551C20.896 231.423 20.536 231.359 20.056 231.359H15.592C14.984 231.359 14.56 231.399 14.32 231.479C14.064 231.559 13.936 231.727 13.936 231.983C13.936 232.271 14.136 232.855 14.536 233.735V233.759C14.536 233.823 14.496 233.871 14.416 233.903C14.336 233.935 14.288 233.919 14.272 233.855L12.52 230.231C12.504 230.215 12.496 230.191 12.496 230.159C12.496 230.111 12.52 230.071 12.568 230.039C12.6 230.007 12.64 229.991 12.688 229.991H20.056C20.552 229.991 20.912 229.943 21.136 229.847C21.36 229.735 21.512 229.519 21.592 229.199C21.672 228.879 21.712 228.367 21.712 227.663C21.712 227.615 21.76 227.591 21.856 227.591C21.952 227.591 22 227.615 22 227.663C22 228.191 21.992 228.607 21.976 228.911L21.952 230.687L21.976 232.439C21.992 232.743 22 233.167 22 233.711Z" fill="#414141"/>
<rect x="17" y="33" width="2" height="136" rx="1" fill="#242424"/>
</svg>
