<svg width="29" height="239" viewBox="0 0 29 239" fill="none" xmlns="http://www.w3.org/2000/svg">
<line x1="18.5" y1="29" x2="18.5" y2="214" stroke="#929292"/>
<path d="M22.312 14.24C22.312 15.184 22.096 16.032 21.664 16.784C21.232 17.52 20.64 18.104 19.888 18.536C19.12 18.952 18.256 19.16 17.296 19.16C16.352 19.16 15.512 18.952 14.776 18.536C14.04 18.104 13.464 17.512 13.048 16.76C12.632 16.008 12.424 15.16 12.424 14.216C12.424 13.288 12.64 12.456 13.072 11.72C13.488 10.984 14.072 10.416 14.824 10.016C15.576 9.6 16.424 9.392 17.368 9.392C18.312 9.392 19.16 9.6 19.912 10.016C20.664 10.432 21.256 11.008 21.688 11.744C22.104 12.48 22.312 13.312 22.312 14.24ZM21.976 13.976C21.976 13.016 21.592 12.296 20.824 11.816C20.04 11.32 18.984 11.072 17.656 11.072C16.056 11.072 14.84 11.4 14.008 12.056C13.176 12.696 12.76 13.504 12.76 14.48C12.76 15.424 13.16 16.168 13.96 16.712C14.76 17.24 15.808 17.504 17.104 17.504C18.528 17.504 19.696 17.184 20.608 16.544C21.52 15.904 21.976 15.048 21.976 13.976ZM22 7.2425C22 7.2905 21.952 7.3145 21.856 7.3145C21.76 7.3145 21.712 7.2905 21.712 7.2425C21.712 6.5545 21.672 6.0505 21.592 5.7305C21.512 5.4105 21.36 5.1945 21.136 5.0825C20.896 4.9545 20.536 4.8905 20.056 4.8905H15.592C14.984 4.8905 14.56 4.9305 14.32 5.0105C14.064 5.0905 13.936 5.2585 13.936 5.5145C13.936 5.8025 14.136 6.3865 14.536 7.2665V7.2905C14.536 7.3545 14.496 7.4025 14.416 7.4345C14.336 7.4665 14.288 7.4505 14.272 7.3865L12.52 3.7625C12.504 3.7465 12.496 3.7225 12.496 3.6905C12.496 3.6425 12.52 3.6025 12.568 3.5705C12.6 3.5385 12.64 3.5225 12.688 3.5225H20.056C20.552 3.5225 20.912 3.4745 21.136 3.3785C21.36 3.2665 21.512 3.0505 21.592 2.7305C21.672 2.4105 21.712 1.8985 21.712 1.1945C21.712 1.1465 21.76 1.1225 21.856 1.1225C21.952 1.1225 22 1.1465 22 1.1945C22 1.7225 21.992 2.1385 21.976 2.4425L21.952 4.2185L21.976 5.9705C21.992 6.2745 22 6.6985 22 7.2425Z" fill="#F5F5F5"/>
<path d="M22 237.68C22 237.728 21.952 237.752 21.856 237.752C21.76 237.752 21.712 237.728 21.712 237.68C21.712 236.992 21.672 236.488 21.592 236.168C21.512 235.848 21.36 235.632 21.136 235.52C20.896 235.392 20.536 235.328 20.056 235.328H15.592C14.984 235.328 14.56 235.368 14.32 235.448C14.064 235.528 13.936 235.696 13.936 235.952C13.936 236.24 14.136 236.824 14.536 237.704V237.728C14.536 237.792 14.496 237.84 14.416 237.872C14.336 237.904 14.288 237.888 14.272 237.824L12.52 234.2C12.504 234.184 12.496 234.16 12.496 234.128C12.496 234.08 12.52 234.04 12.568 234.008C12.6 233.976 12.64 233.96 12.688 233.96H20.056C20.552 233.96 20.912 233.912 21.136 233.816C21.36 233.704 21.512 233.488 21.592 233.168C21.672 232.848 21.712 232.336 21.712 231.632C21.712 231.584 21.76 231.56 21.856 231.56C21.952 231.56 22 231.584 22 231.632C22 232.16 21.992 232.576 21.976 232.88L21.952 234.656L21.976 236.408C21.992 236.712 22 237.136 22 237.68ZM22 229.711C22 229.759 21.952 229.783 21.856 229.783C21.76 229.783 21.712 229.759 21.712 229.711C21.712 229.023 21.672 228.519 21.592 228.199C21.512 227.879 21.36 227.663 21.136 227.551C20.896 227.423 20.536 227.359 20.056 227.359H15.592C14.984 227.359 14.56 227.399 14.32 227.479C14.064 227.559 13.936 227.727 13.936 227.983C13.936 228.271 14.136 228.855 14.536 229.735V229.759C14.536 229.823 14.496 229.871 14.416 229.903C14.336 229.935 14.288 229.919 14.272 229.855L12.52 226.231C12.504 226.215 12.496 226.191 12.496 226.159C12.496 226.111 12.52 226.071 12.568 226.039C12.6 226.007 12.64 225.991 12.688 225.991H20.056C20.552 225.991 20.912 225.943 21.136 225.847C21.36 225.735 21.512 225.519 21.592 225.199C21.672 224.879 21.712 224.367 21.712 223.663C21.712 223.615 21.76 223.591 21.856 223.591C21.952 223.591 22 223.615 22 223.663C22 224.191 21.992 224.607 21.976 224.911L21.952 226.687L21.976 228.439C21.992 228.743 22 229.167 22 229.711Z" fill="#F5F5F5"/>
<rect x="17" y="29" width="2" height="17" rx="1" fill="white"/>
</svg>
