<svg width="29" height="242" viewBox="0 0 29 242" fill="none" xmlns="http://www.w3.org/2000/svg">
<line x1="18.5" y1="32" x2="18.5" y2="217" stroke="#929292"/>
<path d="M22.312 17.24C22.312 18.184 22.096 19.032 21.664 19.784C21.232 20.52 20.64 21.104 19.888 21.536C19.12 21.952 18.256 22.16 17.296 22.16C16.352 22.16 15.512 21.952 14.776 21.536C14.04 21.104 13.464 20.512 13.048 19.76C12.632 19.008 12.424 18.16 12.424 17.216C12.424 16.288 12.64 15.456 13.072 14.72C13.488 13.984 14.072 13.416 14.824 13.016C15.576 12.6 16.424 12.392 17.368 12.392C18.312 12.392 19.16 12.6 19.912 13.016C20.664 13.432 21.256 14.008 21.688 14.744C22.104 15.48 22.312 16.312 22.312 17.24ZM21.976 16.976C21.976 16.016 21.592 15.296 20.824 14.816C20.04 14.32 18.984 14.072 17.656 14.072C16.056 14.072 14.84 14.4 14.008 15.056C13.176 15.696 12.76 16.504 12.76 17.48C12.76 18.424 13.16 19.168 13.96 19.712C14.76 20.24 15.808 20.504 17.104 20.504C18.528 20.504 19.696 20.184 20.608 19.544C21.52 18.904 21.976 18.048 21.976 16.976ZM20.944 1.6265C20.944 1.5625 21.096 1.5305 21.4 1.5305C21.528 1.5305 21.656 1.5465 21.784 1.5785C21.912 1.5945 21.976 1.6185 21.976 1.6505C21.944 2.1305 21.912 2.8025 21.88 3.6665H25.672C25.848 3.6665 25.96 3.7305 26.008 3.8585L26.512 4.8665C26.544 4.9625 26.56 5.0105 26.56 5.0105C26.56 5.0585 26.496 5.0825 26.368 5.0825H21.856C21.824 6.0905 21.808 8.0185 21.808 10.8665C21.808 10.9465 21.776 11.0105 21.712 11.0585C21.648 11.1065 21.584 11.0985 21.52 11.0345L12.496 4.0265C12.464 3.9945 12.448 3.9465 12.448 3.8825C12.448 3.8345 12.464 3.7865 12.496 3.7385C12.512 3.6905 12.544 3.6665 12.592 3.6665H20.992C20.992 3.2985 20.976 2.6185 20.944 1.6265ZM21.088 9.6905C21.088 8.3145 21.072 6.7785 21.04 5.0825H14.872L20.92 9.8105C20.968 9.8585 21.008 9.8745 21.04 9.8585C21.072 9.8265 21.088 9.7705 21.088 9.6905Z" fill="#F5F5F5"/>
<path d="M22 240.68C22 240.728 21.952 240.752 21.856 240.752C21.76 240.752 21.712 240.728 21.712 240.68C21.712 239.992 21.672 239.488 21.592 239.168C21.512 238.848 21.36 238.632 21.136 238.52C20.896 238.392 20.536 238.328 20.056 238.328H15.592C14.984 238.328 14.56 238.368 14.32 238.448C14.064 238.528 13.936 238.696 13.936 238.952C13.936 239.24 14.136 239.824 14.536 240.704V240.728C14.536 240.792 14.496 240.84 14.416 240.872C14.336 240.904 14.288 240.888 14.272 240.824L12.52 237.2C12.504 237.184 12.496 237.16 12.496 237.128C12.496 237.08 12.52 237.04 12.568 237.008C12.6 236.976 12.64 236.96 12.688 236.96H20.056C20.552 236.96 20.912 236.912 21.136 236.816C21.36 236.704 21.512 236.488 21.592 236.168C21.672 235.848 21.712 235.336 21.712 234.632C21.712 234.584 21.76 234.56 21.856 234.56C21.952 234.56 22 234.584 22 234.632C22 235.16 21.992 235.576 21.976 235.88L21.952 237.656L21.976 239.408C21.992 239.712 22 240.136 22 240.68ZM22 232.711C22 232.759 21.952 232.783 21.856 232.783C21.76 232.783 21.712 232.759 21.712 232.711C21.712 232.023 21.672 231.519 21.592 231.199C21.512 230.879 21.36 230.663 21.136 230.551C20.896 230.423 20.536 230.359 20.056 230.359H15.592C14.984 230.359 14.56 230.399 14.32 230.479C14.064 230.559 13.936 230.727 13.936 230.983C13.936 231.271 14.136 231.855 14.536 232.735V232.759C14.536 232.823 14.496 232.871 14.416 232.903C14.336 232.935 14.288 232.919 14.272 232.855L12.52 229.231C12.504 229.215 12.496 229.191 12.496 229.159C12.496 229.111 12.52 229.071 12.568 229.039C12.6 229.007 12.64 228.991 12.688 228.991H20.056C20.552 228.991 20.912 228.943 21.136 228.847C21.36 228.735 21.512 228.519 21.592 228.199C21.672 227.879 21.712 227.367 21.712 226.663C21.712 226.615 21.76 226.591 21.856 226.591C21.952 226.591 22 226.615 22 226.663C22 227.191 21.992 227.607 21.976 227.911L21.952 229.687L21.976 231.439C21.992 231.743 22 232.167 22 232.711Z" fill="#F5F5F5"/>
<rect x="17" y="32" width="2" height="68" rx="1" fill="white"/>
</svg>
