<svg width="29" height="240" viewBox="0 0 29 240" fill="none" xmlns="http://www.w3.org/2000/svg">
<line x1="18.5" y1="30" x2="18.5" y2="215" stroke="#929292"/>
<path d="M22.312 15.24C22.312 16.184 22.096 17.032 21.664 17.784C21.232 18.52 20.64 19.104 19.888 19.536C19.12 19.952 18.256 20.16 17.296 20.16C16.352 20.16 15.512 19.952 14.776 19.536C14.04 19.104 13.464 18.512 13.048 17.76C12.632 17.008 12.424 16.16 12.424 15.216C12.424 14.288 12.64 13.456 13.072 12.72C13.488 11.984 14.072 11.416 14.824 11.016C15.576 10.6 16.424 10.392 17.368 10.392C18.312 10.392 19.16 10.6 19.912 11.016C20.664 11.432 21.256 12.008 21.688 12.744C22.104 13.48 22.312 14.312 22.312 15.24ZM21.976 14.976C21.976 14.016 21.592 13.296 20.824 12.816C20.04 12.32 18.984 12.072 17.656 12.072C16.056 12.072 14.84 12.4 14.008 13.056C13.176 13.696 12.76 14.504 12.76 15.48C12.76 16.424 13.16 17.168 13.96 17.712C14.76 18.24 15.808 18.504 17.104 18.504C18.528 18.504 19.696 18.184 20.608 17.544C21.52 16.904 21.976 16.048 21.976 14.976ZM18.856 4.4265C18.968 3.3705 19.344 2.5705 19.984 2.0265C20.624 1.4665 21.368 1.1865 22.216 1.1865C23 1.1865 23.8 1.4425 24.616 1.9545C25.448 2.4665 26.216 3.2505 26.92 4.3065C27.624 5.3465 28.184 6.6265 28.6 8.1465C28.616 8.2105 28.576 8.2665 28.48 8.3145C28.4 8.3465 28.352 8.3305 28.336 8.2665C27.744 6.3465 26.904 4.9785 25.816 4.1625C24.728 3.3305 23.616 2.9145 22.48 2.9145C21.616 2.9145 20.888 3.1385 20.296 3.5865C19.704 4.0345 19.408 4.7145 19.408 5.6265C19.408 6.0425 19.456 6.4265 19.552 6.7785C19.568 6.8265 19.528 6.8665 19.432 6.8985C19.336 6.9305 19.28 6.9225 19.264 6.8745C18.944 5.6265 18.496 4.7465 17.92 4.2345C17.344 3.7065 16.56 3.4425 15.568 3.4425C14.752 3.4425 14.112 3.6185 13.648 3.9705C13.184 4.3065 12.952 4.8265 12.952 5.5305C12.952 6.9545 13.904 7.9385 15.808 8.4825C15.824 8.4985 15.832 8.5305 15.832 8.5785C15.832 8.7225 15.8 8.7865 15.736 8.7705L12.232 7.8825C12.2 7.8505 12.184 7.8185 12.184 7.7865C12.184 7.7385 12.2 7.6905 12.232 7.6425C12.248 7.5945 12.264 7.5785 12.28 7.5945C12.408 7.6265 12.496 7.6425 12.544 7.6425C12.816 7.6425 12.952 7.5065 12.952 7.2345C12.952 7.0905 12.896 6.8505 12.784 6.5145C12.544 5.8585 12.424 5.2665 12.424 4.7385C12.424 3.8425 12.696 3.1465 13.24 2.6505C13.768 2.1545 14.408 1.9065 15.16 1.9065C15.944 1.9065 16.68 2.1305 17.368 2.5785C18.04 3.0265 18.536 3.6425 18.856 4.4265Z" fill="#3E3E3E"/>
<path d="M22 238.68C22 238.728 21.952 238.752 21.856 238.752C21.76 238.752 21.712 238.728 21.712 238.68C21.712 237.992 21.672 237.488 21.592 237.168C21.512 236.848 21.36 236.632 21.136 236.52C20.896 236.392 20.536 236.328 20.056 236.328H15.592C14.984 236.328 14.56 236.368 14.32 236.448C14.064 236.528 13.936 236.696 13.936 236.952C13.936 237.24 14.136 237.824 14.536 238.704V238.728C14.536 238.792 14.496 238.84 14.416 238.872C14.336 238.904 14.288 238.888 14.272 238.824L12.52 235.2C12.504 235.184 12.496 235.16 12.496 235.128C12.496 235.08 12.52 235.04 12.568 235.008C12.6 234.976 12.64 234.96 12.688 234.96H20.056C20.552 234.96 20.912 234.912 21.136 234.816C21.36 234.704 21.512 234.488 21.592 234.168C21.672 233.848 21.712 233.336 21.712 232.632C21.712 232.584 21.76 232.56 21.856 232.56C21.952 232.56 22 232.584 22 232.632C22 233.16 21.992 233.576 21.976 233.88L21.952 235.656L21.976 237.408C21.992 237.712 22 238.136 22 238.68ZM22 230.711C22 230.759 21.952 230.783 21.856 230.783C21.76 230.783 21.712 230.759 21.712 230.711C21.712 230.023 21.672 229.519 21.592 229.199C21.512 228.879 21.36 228.663 21.136 228.551C20.896 228.423 20.536 228.359 20.056 228.359H15.592C14.984 228.359 14.56 228.399 14.32 228.479C14.064 228.559 13.936 228.727 13.936 228.983C13.936 229.271 14.136 229.855 14.536 230.735V230.759C14.536 230.823 14.496 230.871 14.416 230.903C14.336 230.935 14.288 230.919 14.272 230.855L12.52 227.231C12.504 227.215 12.496 227.191 12.496 227.159C12.496 227.111 12.52 227.071 12.568 227.039C12.6 227.007 12.64 226.991 12.688 226.991H20.056C20.552 226.991 20.912 226.943 21.136 226.847C21.36 226.735 21.512 226.519 21.592 226.199C21.672 225.879 21.712 225.367 21.712 224.663C21.712 224.615 21.76 224.591 21.856 224.591C21.952 224.591 22 224.615 22 224.663C22 225.191 21.992 225.607 21.976 225.911L21.952 227.687L21.976 229.439C21.992 229.743 22 230.167 22 230.711Z" fill="#3E3E3E"/>
<rect x="17" y="30" width="2" height="51" rx="1" fill="#1B1B1B"/>
</svg>
